# xmcd CD database file
#
# Track frame offsets:
#	150
#	29990
#	52157
#	74436
#	98978
#	129253
#	163632
#	178718
#	209511
#	234055
#
# Disc length: 3523 seconds
#
# Revision: 0
# Processed by: cddbd v1.5.1PL0 Copyright (c) Steve Scherf et al.
# Submitted via: cdripper 1.0.10
#
DISCID=900dc10a
DTITLE=Geof Bradfield Trio w/ Noel Kupersmith and Ted Sirota  - Rule Of Three
DYEAR=2004
DGENRE=Jazz
TTITLE0=John Gilmore
TTITLE1=Koan
TTITLE2=Nichol's Plated
TTITLE3=Day Dream
TTITLE4=Paul's Pal
TTITLE5=Contemplation
TTITLE6=Reconciliation
TTITLE7=Persephone
TTITLE8=Berkshire Blues
TTITLE9=Happy
EXTD=YEAR: 2004
EXTT0=
EXTT1=
EXTT2=
EXTT3=
EXTT4=
EXTT5=
EXTT6=
EXTT7=
EXTT8=
EXTT9=
PLAYORDER=
